<?xml version="1.0" encoding="utf-8"?>
<!-- Generator: Adobe Illustrator 21.0.0, SVG Export Plug-In . SVG Version: 6.00 Build 0)  -->
<svg version="1.1" id="Layer_1" xmlns="http://www.w3.org/2000/svg" xmlns:xlink="http://www.w3.org/1999/xlink" x="0px" y="0px"
	 viewBox="0 0 1920 1080" style="enable-background:new 0 0 1920 1080;" xml:space="preserve">
<style type="text/css">
    @keyframes fadeIn {
    0% {opacity:0;}
    100% {opacity:1;}
    }
	.st0{fill:#D8912A;
    opacity:0;}
    
    .leaf9 {
    animation-name : fadeIn;
    animation-duration : 2s;
    animation-fill-mode : forwards;
    }
    
    .leaf8 {
    animation-delay:0.5s;
    animation-name : fadeIn;
    animation-duration : 2s;
    animation-fill-mode : forwards;
    }
    
        .leaf7 {
    animation-delay:1s;
    animation-name : fadeIn;
    animation-duration : 2s;
    animation-fill-mode : forwards;
    }
    
        .leaf6 {
    animation-delay:1.5s;
    animation-name : fadeIn;
    animation-duration : 2s;
    animation-fill-mode : forwards;
    }
    
        .leaf5 {
    animation-delay:2s;
    animation-name : fadeIn;
    animation-duration : 2s;
    animation-fill-mode : forwards;
    }
    
        .leaf4 {
    animation-delay : 2.5s;
    animation-name : fadeIn;
    animation-duration : 2s;
    animation-fill-mode : forwards;
    }
    
        .leaf3 {
    animation-delay:3s;
    animation-name : fadeIn;
    animation-duration : 2s;
    animation-fill-mode : forwards;
    }
    
        .leaf2 {
    animation-delay:3.5s;
    animation-name : fadeIn;
    animation-duration : 2s;
    animation-fill-mode : forwards;
    }
    
        .leaf1 {
    animation-delay:4s;
    animation-name : fadeIn;
    animation-duration : 2s;
    animation-fill-mode : forwards;
    }
</style>
<path class="st0 leaf1" d="M1495.6,45c-39.2,17.3-81.1,35-106.4,80.8c-14.9,26.7-17.1,58.4-28.8,86c21.7-23.1,46.9-40.3,65.2-67.9
	C1447.8,110.6,1466.9,73.8,1495.6,45L1495.6,45z"/>
<path class="st0 leaf2" d="M1390.1,105.6c-19.9,5.8-36.6,20.5-51.6,39.3c-31.2,39.4-28.5,97.6-24.3,149.6c1.3,16,0.6,29.7-1,46.1
	c9.5-22.1,24.9-43.1,43.2-58.8c40.7-35,85.2-80.1,85.8-139.5c-13.5,42.8-54.4,60.5-81.6,89.6c-14,14.9-24.8,33.1-31.9,53.4l-1-1
	c3.3-17,9.8-32.7,14.1-49.1C1353.6,190,1351.5,135.9,1390.1,105.6L1390.1,105.6z"/>
<path class="st0 leaf3" d="M1307.5,186.5c-1-0.3-1.6,0.7-2.3,1.1c-26.9,39.1-45,82.1-45,134.7c0,65,32.8,110.3,36.9,171.3
	c8.5-63.7,55.4-108.9,79.7-165c9.5-21.9,15.4-46.5,18-70.6c-3.6,10.3-9,19.8-16.5,27.8c-31.6,34.1-68.8,67.7-76,116
	c-1.1,7-1.6,14-3.3,20.7c-1.4,0.8-1.4-1.1-2-1.5l4.1-59.9C1304.9,302.8,1277.8,237.9,1307.5,186.5L1307.5,186.5z"/>
<path class="st0 leaf4" d="M1250.1,348.5c-6.4,15.1-8.9,32.1-12.2,48.6c-7,42.5,0,87.6,10.1,126.7c12.6,48.9,54.7,83.9,76.1,128.7l2.9,2.7
	c-3.1-24.3-4.7-50.5,1.3-73.7c9.2-37.1,20.8-73.2,26.8-111.7c4.7-29.9,10.1-63.4,7-92.4c-3.6,15.6-7.1,31-14.6,44.3
	c-28.6,50.4-58,109.5-38,173.5c-0.5,0.8-1.1,1.6-1.9,1.1c-8-21.1-9.9-45.1-15.1-67.9C1278.7,468.3,1238.1,418.1,1250.1,348.5
	L1250.1,348.5z"/>
<path class="st0 leaf5" d="M1355.4,521.5c5.3,39.5-8.5,74.5-11.7,112.1c-2.6,29.7,1.8,59.7,12.7,87c3.2,7.7,8.8,14.7,10.4,22.5
	c-10.2-10.5-17.4-23.8-24.4-36.8c-32.9-60.5-101.8-99.8-106.4-173.4c-2.4,32.8,0.1,67.5,9.7,96.7c13.3,40.4,39,71.5,68.5,98
	c30.6,27.4,67,48.9,94.8,72.9c-5.5-15.8-14.4-30.4-18-47C1374.6,678.1,1383.7,591,1355.4,521.5L1355.4,521.5z"/>
<path class="st0 leaf6" d="M1390.9,647.7c23.8,54.3,13.6,124.3,44.6,175.5c9.7,16,23.3,31.3,35.7,44.3l-0.7,0.8c-11.3-6-21.5-15-31.9-24.8
	c-54.2-51.2-135.7-57.8-168.2-141.4c8.8,61.3,51.6,115.7,97.8,150.2c43.9,32.8,100.3,29,149.1,47.4c-45.1-41.4-52-103.6-72-158.1
	C1433,707.7,1412.6,677.2,1390.9,647.7L1390.9,647.7z"/>
<path class="st0 leaf7" d="M1468.9,780.1c29.5,45.1,37.9,110.8,91.8,133.9c9.5,4.1,20.5,4.8,28.8,10.8c-10.4,1.8-19.5-1.9-29.2-4.2
	c-69.4-16.8-154.3,4.9-206.2-62.5c19.7,44,60.4,78.8,99.5,93.4c60.5,22.8,123.6-2.7,180.5-18.7c8.2-2.3,18.2-1.6,25.8-4.8
	c-31.7-7.3-62.2-18.2-86.8-43.7C1537.7,847.6,1506.5,808.6,1468.9,780.1L1468.9,780.1z"/>
<path class="st0 leaf8" d="M1729,926.4c-53.3,0-100.9,29.3-147.7,51.4c-42.3,20-98.4,16-135.9-13.4c18.6,26.5,43.3,42.8,68.9,53.9
	c47.6,21.6,103.2,5,143.7-24.5c29.2-21.2,54.2-51.3,88.9-51.3c6.2,0,12.3,0.8,18.5,2.3c6.8-3.1,13.6-5.9,20.7-8.3
	C1767.7,929.8,1748.4,926.5,1729,926.4L1729,926.4z"/>
<path class="st0 leaf9" d="M1792.2,943.8c-6.9,1.7-13.7,4.1-20.7,7.3c43.6,20.3,87.4,69.5,126,114.9c7.8-7.1,16.1-14.9,22.4-23.1
	C1885.4,1005.2,1841,966,1792.2,943.8L1792.2,943.8z"/>
</svg>
